<?xml version="1.0" standalone="no"?>
<!DOCTYPE svg PUBLIC "-//W3C//DTD SVG 20010904//EN"
 "http://www.w3.org/TR/2001/REC-SVG-20010904/DTD/svg10.dtd">
<svg version="1.0" xmlns="http://www.w3.org/2000/svg"
 width="700.000000pt" height="700.000000pt" viewBox="0 0 700.000000 700.000000"
 preserveAspectRatio="xMidYMid meet">
<metadata>
Created by potrace 1.11, written by Peter Selinger 2001-2013
</metadata>
<g transform="translate(0.000000,700.000000) scale(0.100000,-0.100000)"
fill="#000000" stroke="none">
<path d="M3340 5959 c-41 -4 -97 -10 -125 -14 -27 -3 -61 -8 -75 -10 -14 -2
-58 -11 -99 -20 -40 -10 -78 -18 -85 -19 -130 -26 -401 -125 -569 -208 -65
-32 -122 -58 -126 -58 -5 0 -14 14 -21 31 -19 45 -75 98 -128 122 -62 27 -159
26 -225 -2 -156 -67 -371 -252 -718 -616 -157 -166 -219 -264 -219 -348 l0
-33 -140 -47 c-190 -63 -314 -125 -394 -198 -77 -71 -108 -130 -111 -216 -5
-126 66 -215 242 -302 59 -30 153 -76 208 -104 125 -62 188 -104 178 -120 -4
-7 -19 -21 -33 -32 -14 -11 -92 -76 -175 -145 -369 -306 -470 -469 -408 -659
31 -97 106 -154 299 -225 124 -46 123 -39 13 -153 -255 -264 -325 -456 -234
-646 22 -48 82 -108 137 -141 24 -14 93 -46 153 -71 61 -25 131 -57 156 -71
26 -13 59 -31 75 -39 56 -29 106 -89 150 -180 99 -207 305 -329 684 -405 52
-10 122 -21 155 -25 33 -4 71 -8 85 -11 36 -6 317 -6 365 1 210 27 367 68 610
158 133 49 188 78 236 124 35 33 38 34 87 25 134 -24 322 18 452 102 129 84
235 251 265 416 19 105 43 129 105 103 19 -8 51 -29 70 -47 99 -95 323 -207
495 -250 155 -38 311 -40 437 -6 45 12 88 23 93 24 88 17 239 82 296 127 66
52 107 166 79 219 -10 19 -13 17 80 35 23 4 132 28 190 42 14 3 34 8 44 10
125 23 410 125 481 170 59 38 180 163 205 213 49 97 7 172 -135 240 -76 37
-112 49 -355 120 -347 102 -456 156 -504 251 -42 85 -30 118 123 349 54 80
118 186 143 235 24 50 55 109 67 132 33 62 34 111 2 174 -45 91 -75 107 -409
214 -473 153 -574 194 -646 262 -56 53 -74 100 -70 181 12 219 0 324 -51 428
-55 112 -137 183 -264 227 -45 16 -89 20 -221 23 -171 3 -207 -1 -361 -40 -33
-9 -65 -16 -70 -16 -8 0 11 56 46 135 87 197 78 352 -27 457 -40 40 -132 88
-198 104 -19 4 -37 8 -40 9 -12 3 -118 15 -155 18 -22 1 -74 0 -115 -4z"/>
</g>
</svg>
